<svg width="24" height="24" viewBox="0 0 24 24" fill="none" xmlns="http://www.w3.org/2000/svg">
<path fill-rule="evenodd" clip-rule="evenodd" d="M7.86228 14.0161L20.5546 1.32375L22.6759 3.44507L9.9836 16.1374C9.39781 16.7232 8.44807 16.7232 7.86228 16.1374C7.27649 15.5516 7.27649 14.6018 7.86228 14.0161Z" fill="white"/>
<path fill-rule="evenodd" clip-rule="evenodd" d="M5 6.57706C4.17157 6.57706 3.5 7.24863 3.5 8.07706V19.0001C3.5 19.8286 4.17157 20.5001 5 20.5001H15.9231C16.7515 20.5001 17.4231 19.8286 17.4231 19.0001V15.3078C17.4231 14.4794 18.0947 13.8078 18.9231 13.8078C19.7515 13.8078 20.4231 14.4794 20.4231 15.3078V19.0001C20.4231 21.4854 18.4084 23.5001 15.9231 23.5001H5C2.51472 23.5001 0.5 21.4854 0.5 19.0001V8.07706C0.5 5.59178 2.51472 3.57706 5 3.57706H8.69231C9.52074 3.57706 10.1923 4.24863 10.1923 5.07706C10.1923 5.90548 9.52074 6.57706 8.69231 6.57706H5Z" fill="white"/>
<path fill-rule="evenodd" clip-rule="evenodd" d="M12.0385 2C12.0385 1.17157 12.7101 0.5 13.5385 0.5H21.0001C22.3808 0.5 23.5001 1.61929 23.5001 3V10.4615C23.5001 11.29 22.8285 11.9615 22.0001 11.9615C21.1716 11.9615 20.5001 11.29 20.5001 10.4615V3.5H13.5385C12.7101 3.5 12.0385 2.82843 12.0385 2Z" fill="white"/>
</svg>
